# xmcd
#
# Track frame offsets:
#	150
#	16180
#	33272
#	54955
#	69760
#	86915
#	98592
#	115432
#	129945
#	147322
#	165912
#	179607
#	195565
#	211982
#	226425
#
# Disc length: 3234 seconds
#
# Revision: 1
# Processed by: cddbd v1.5.1PL2 Copyright (c) Steve Scherf et al.
# Submitted via: audiograbber 1.83.01
#
DISCID=bf0ca00f
DTITLE=Music Maestro - MM6257
DYEAR=1900
DGENRE=Karaoke
TTITLE0=Carter, Deana - Absence Of The Heart
TTITLE1=Travis, Randy - Spirit Of A Boy, Wisdom Of A Man
TTITLE2=Loveless, Patty - Like Water Into Wine
TTITLE3=Kersh, David - Something To Think About
TTITLE4=Wilkinsons, The - Fly The Angel Song
TTITLE5=Diamond Rio - Unbelievable
TTITLE6=Dodd, Deryl - Bitter End
TTITLE7=Gill, Vince - Kindly Keep It Country
TTITLE8=Messina, Jo Dee - Stand Beside Me
TTITLE9=McCready, Mindy - Let's Talk About Love
TTITLE10=Kershaw, Sammy - One Day Left To Live
TTITLE11=Evans, Sara - No Place That Far
TTITLE12=Simpson, Jenny - Ticket Out Of Kansas
TTITLE13=Daniels, Clint - When I Grow Up
TTITLE14=Jackson, Alan - Right On The Money
EXTD=As Listed In KJ Pro
EXTT0=
EXTT1=
EXTT2=
EXTT3=
EXTT4=
EXTT5=
EXTT6=
EXTT7=
EXTT8=
EXTT9=
EXTT10=
EXTT11=
EXTT12=
EXTT13=
EXTT14=
PLAYORDER=
